<svg xmlns="http://www.w3.org/2000/svg" viewBox="0 0 500 500"><g id="freepik--Shadow--inject-111"><ellipse id="freepik--path--inject-111" cx="250" cy="412.39" rx="193.89" ry="11.32" style="fill:#f5f5f5"></ellipse></g><g id="freepik--Plants--inject-111"><path d="M318.16,415.89c.42-1.13.85-2.26,1.3-3.38v0c.33-.8.65-1.6,1-2.4h0l.39-.93c1.44-3.41,3-6.81,4.76-10.1.06-.13.13-.25.2-.38q.7-1.29,1.44-2.55c.34-.57.68-1.13,1-1.69s.58-.91.88-1.36a55.31,55.31,0,0,1,4.27-5.7l.95-1.08c.19-.21.49.11.3.32s-.49.55-.73.83a54.61,54.61,0,0,0-3.56,4.59l-.17.25a4,4,0,0,0-.23.34,95.9,95.9,0,0,0-9.08,17.5c-.35.84-.7,1.69-1,2.55a0,0,0,0,1,0,0c-.42,1.05-.83,2.12-1.22,3.19a1.46,1.46,0,0,0-.07.19v0Z" style="fill:#BA68C8"></path><g style="opacity:0.30000000000000004"><path d="M318.16,415.89c.42-1.13.85-2.26,1.3-3.38v0c.33-.8.65-1.6,1-2.4h0l.39-.93c1.44-3.41,3-6.81,4.76-10.1.06-.13.13-.25.2-.38q.7-1.29,1.44-2.55c.34-.57.68-1.13,1-1.69s.58-.91.88-1.36a55.31,55.31,0,0,1,4.27-5.7l.95-1.08c.19-.21.49.11.3.32s-.49.55-.73.83a54.61,54.61,0,0,0-3.56,4.59l-.17.25a4,4,0,0,0-.23.34,95.9,95.9,0,0,0-9.08,17.5c-.35.84-.7,1.69-1,2.55a0,0,0,0,1,0,0c-.42,1.05-.83,2.12-1.22,3.19a1.46,1.46,0,0,0-.07.19v0Z" style="fill:#fff"></path></g><path d="M334.62,385.75s-2.73-.2-1.7,1.19,2.36-.48,2.36-.48-.43,2.65,1.13,2.93.11-3.06.11-3.06,2,2.37,2.8,1.17-2.71-2.41-2.71-2.41,3.46.36,2.59-.73-3.62-.15-3.62-.15,1.05-2.2-.68-2.54-.39,2.53-.39,2.53-2-2.07-2.84-1.24S334.62,385.75,334.62,385.75Z" style="fill:#BA68C8"></path><path d="M327.18,396.74a11.85,11.85,0,0,0,1.65-7.76C328.35,384.1,327.18,396.74,327.18,396.74Z" style="fill:#BA68C8"></path><path d="M329.6,392.83s3-3.13,4.73-1.48S331.78,391.35,329.6,392.83Z" style="fill:#BA68C8"></path><path d="M336.21,385.9c-.21.19-.7,0-1.08-.39s-.53-.91-.32-1.1.7,0,1.08.39S336.42,385.7,336.21,385.9Z" style="fill:#fff;opacity:0.6000000000000001"></path><path d="M319.05,415.88c.29-1.06.56-2.14.81-3.21.21-.86.41-1.72.59-2.59.29-1.32.57-2.65.82-4a108.51,108.51,0,0,0,1.91-14.19.49.49,0,0,0,0-.17c.05-.64.08-1.29.09-1.93a57.69,57.69,0,0,0-.34-8.82c-.05-.47-.11-.95-.18-1.42,0-.27-.46-.17-.42.1l.15,1.09a54.36,54.36,0,0,1,.4,6.12c0,.13,0,.26,0,.39,0,1.3,0,2.61-.09,3.91a109.24,109.24,0,0,1-2.13,15.69c-.38,1.88-.78,3.75-1.22,5.62-.27,1.13-.55,2.27-.85,3.4l-.06.22Z" style="fill:#BA68C8"></path><g style="opacity:0.30000000000000004"><path d="M319.05,415.88c.29-1.06.56-2.14.81-3.21.21-.86.41-1.72.59-2.59.29-1.32.57-2.65.82-4a108.51,108.51,0,0,0,1.91-14.19.49.49,0,0,0,0-.17c.05-.64.08-1.29.09-1.93a57.69,57.69,0,0,0-.34-8.82c-.05-.47-.11-.95-.18-1.42,0-.27-.46-.17-.42.1l.15,1.09a54.36,54.36,0,0,1,.4,6.12c0,.13,0,.26,0,.39,0,1.3,0,2.61-.09,3.91a109.24,109.24,0,0,1-2.13,15.69c-.38,1.88-.78,3.75-1.22,5.62-.27,1.13-.55,2.27-.85,3.4l-.06.22Z" style="fill:#fff"></path></g><path d="M322.86,379s2.38,1.36.75,1.93-1.69-1.71-1.69-1.71-1.12,2.44-2.57,1.81,1.61-2.61,1.61-2.61-3,.87-3-.59,3.59-.48,3.59-.48-3.07-1.63-1.74-2,3.09,1.89,3.09,1.89.35-2.42,2-1.74-1.09,2.32-1.09,2.32,2.83-.59,3.05.55S322.86,379,322.86,379Z" style="fill:#BA68C8"></path><path d="M322.86,379s2.38,1.36.75,1.93-1.69-1.71-1.69-1.71-1.12,2.44-2.57,1.81,1.61-2.61,1.61-2.61-3,.87-3-.59,3.59-.48,3.59-.48-3.07-1.63-1.74-2,3.09,1.89,3.09,1.89.35-2.42,2-1.74-1.09,2.32-1.09,2.32,2.83-.59,3.05.55S322.86,379,322.86,379Z" style="fill:#fff;opacity:0.5"></path><path d="M322.92,392.26a11.82,11.82,0,0,1,2.95-7.36C329,381.11,322.92,392.26,322.92,392.26Z" style="fill:#BA68C8"></path><path d="M323.09,387.66s-.8-4.29-3.11-3.86S322.11,385.22,323.09,387.66Z" style="fill:#BA68C8"></path><path d="M321.46,378.23c.07.28.56.4,1.11.28s.94-.46.88-.74-.57-.41-1.11-.28S321.4,378,321.46,378.23Z" style="fill:#BA68C8"></path><path d="M141.35,397.71c-1.25-6.55-6-10.52-10.93-14.52,3,5.6,6.46,10.74,8,17a28.92,28.92,0,0,0-8-8.27s4.5,9.64,6.23,11.51A22.11,22.11,0,0,0,123.44,396c9.45,6.9,12.81,13.38,14.11,17.21a4.29,4.29,0,0,0,4,3l10-.07a4.36,4.36,0,0,0,4-3.12c1.75-5.19,4.8-9.65,9.33-12.2-3.81,1.17-7,2-9.3,5.57,1.42-5.19,3.84-8.19,8.34-10.37-4.18.74-8.3,2.45-10,6.71a17.12,17.12,0,0,1,6.22-12.23,9.38,9.38,0,0,0-7.7,7.32c-.12-5.22.38-10.47,3-14.84A16.59,16.59,0,0,0,149,394.25c-1.12-4.49-1.67-11.06-6.43-16.94a40.29,40.29,0,0,1,1.68,15.87c-.41-2.74-4.13-9.7-7.7-12.24C136.52,380.94,141.73,391.14,141.35,397.71Z" style="fill:#BA68C8"></path><path d="M131.52,408.89a14.64,14.64,0,0,1,4.51,3.88,9,9,0,0,0-4.54.24l5.52.81a5,5,0,0,0-3.16,1.79,8.74,8.74,0,0,1,4.62-.23,5.78,5.78,0,0,0,1.69.26,1.48,1.48,0,0,0,1.32-1,2.1,2.1,0,0,0-.31-1.47C139.25,409.54,135,409,131.52,408.89Z" style="fill:#BA68C8"></path><path d="M159.72,409.62a16.7,16.7,0,0,1-4.58,3.29,11.35,11.35,0,0,1,5.27.36,10,10,0,0,1-4.72.85,7.36,7.36,0,0,1,2.85,1.39l-6.43.68a2.7,2.7,0,0,1,.17-2.05C153.52,411.83,157.55,410.31,159.72,409.62Z" style="fill:#BA68C8"></path><g style="opacity:0.6000000000000001"><path d="M141.35,397.71c-1.25-6.55-6-10.52-10.93-14.52,3,5.6,6.46,10.74,8,17a28.92,28.92,0,0,0-8-8.27s4.5,9.64,6.23,11.51A22.11,22.11,0,0,0,123.44,396c9.45,6.9,12.81,13.38,14.11,17.21a4.29,4.29,0,0,0,4,3l10-.07a4.36,4.36,0,0,0,4-3.12c1.75-5.19,4.8-9.65,9.33-12.2-3.81,1.17-7,2-9.3,5.57,1.42-5.19,3.84-8.19,8.34-10.37-4.18.74-8.3,2.45-10,6.71a17.12,17.12,0,0,1,6.22-12.23,9.38,9.38,0,0,0-7.7,7.32c-.12-5.22.38-10.47,3-14.84A16.59,16.59,0,0,0,149,394.25c-1.12-4.49-1.67-11.06-6.43-16.94a40.29,40.29,0,0,1,1.68,15.87c-.41-2.74-4.13-9.7-7.7-12.24C136.52,380.94,141.73,391.14,141.35,397.71Z" style="fill:#fff"></path><path d="M131.52,408.89a14.64,14.64,0,0,1,4.51,3.88,9,9,0,0,0-4.54.24l5.52.81a5,5,0,0,0-3.16,1.79,8.74,8.74,0,0,1,4.62-.23,5.78,5.78,0,0,0,1.69.26,1.48,1.48,0,0,0,1.32-1,2.1,2.1,0,0,0-.31-1.47C139.25,409.54,135,409,131.52,408.89Z" style="fill:#fff"></path><path d="M159.72,409.62a16.7,16.7,0,0,1-4.58,3.29,11.35,11.35,0,0,1,5.27.36,10,10,0,0,1-4.72.85,7.36,7.36,0,0,1,2.85,1.39l-6.43.68a2.7,2.7,0,0,1,.17-2.05C153.52,411.83,157.55,410.31,159.72,409.62Z" style="fill:#fff"></path></g><path d="M316.2,402.26c-1.28-4.95-6.17-7.95-11.14-11,3,4.23,6.59,8.1,8.18,12.82a26.68,26.68,0,0,0-8.19-6.24s4.6,7.28,6.36,8.69a25.47,25.47,0,0,0-13.47-5.6c9.63,5.22,13.06,10.1,14.38,13a4.44,4.44,0,0,0,4.13,2.3l10.21,0a4.42,4.42,0,0,0,4.07-2.36,17.83,17.83,0,0,1,9.52-9.21c-3.89.88-7.15,1.53-9.48,4.2,1.44-3.91,3.91-6.17,8.5-7.82-4.26.56-8.47,1.85-10.21,5.06.51-3.94,2.49-6.8,6.35-9.23-3.65.45-7.16,2.57-7.86,5.53-.12-3.94.39-7.91,3-11.21a12.46,12.46,0,0,0-6.61,8.47c-1.14-3.4-1.7-8.35-6.55-12.79a22.89,22.89,0,0,1,1.71,12c-.42-2.07-4.22-7.32-7.85-9.24C311.28,389.6,316.58,397.3,316.2,402.26Z" style="fill:#BA68C8"></path><path d="M306.17,410.7a14.76,14.76,0,0,1,4.61,2.93,12.49,12.49,0,0,0-4.64.18l5.63.61a5.76,5.76,0,0,0-3.22,1.35,11.85,11.85,0,0,1,4.71-.17,7.68,7.68,0,0,0,1.72.19,1.52,1.52,0,0,0,1.35-.76,1.29,1.29,0,0,0-.31-1.12C314.05,411.19,309.69,410.77,306.17,410.7Z" style="fill:#BA68C8"></path><path d="M334.94,411.25a17.82,17.82,0,0,1-4.67,2.48,15.56,15.56,0,0,1,5.36.27,13.13,13.13,0,0,1-4.8.65,8.89,8.89,0,0,1,2.9,1l-6.55.52a1.55,1.55,0,0,1,.17-1.55C328.61,412.92,332.72,411.77,334.94,411.25Z" style="fill:#BA68C8"></path><g style="opacity:0.6000000000000001"><path d="M316.2,402.26c-1.28-4.95-6.17-7.95-11.14-11,3,4.23,6.59,8.1,8.18,12.82a26.68,26.68,0,0,0-8.19-6.24s4.6,7.28,6.36,8.69a25.47,25.47,0,0,0-13.47-5.6c9.63,5.22,13.06,10.1,14.38,13a4.44,4.44,0,0,0,4.13,2.3l10.21,0a4.42,4.42,0,0,0,4.07-2.36,17.83,17.83,0,0,1,9.52-9.21c-3.89.88-7.15,1.53-9.48,4.2,1.44-3.91,3.91-6.17,8.5-7.82-4.26.56-8.47,1.85-10.21,5.06.51-3.94,2.49-6.8,6.35-9.23-3.65.45-7.16,2.57-7.86,5.53-.12-3.94.39-7.91,3-11.21a12.46,12.46,0,0,0-6.61,8.47c-1.14-3.4-1.7-8.35-6.55-12.79a22.89,22.89,0,0,1,1.71,12c-.42-2.07-4.22-7.32-7.85-9.24C311.28,389.6,316.58,397.3,316.2,402.26Z" style="fill:#fff"></path><path d="M306.17,410.7a14.76,14.76,0,0,1,4.61,2.93,12.49,12.49,0,0,0-4.64.18l5.63.61a5.76,5.76,0,0,0-3.22,1.35,11.85,11.85,0,0,1,4.71-.17,7.68,7.68,0,0,0,1.72.19,1.52,1.52,0,0,0,1.35-.76,1.29,1.29,0,0,0-.31-1.12C314.05,411.19,309.69,410.77,306.17,410.7Z" style="fill:#fff"></path><path d="M334.94,411.25a17.82,17.82,0,0,1-4.67,2.48,15.56,15.56,0,0,1,5.36.27,13.13,13.13,0,0,1-4.8.65,8.89,8.89,0,0,1,2.9,1l-6.55.52a1.55,1.55,0,0,1,.17-1.55C328.61,412.92,332.72,411.77,334.94,411.25Z" style="fill:#fff"></path></g><path d="M131.35,389s2-3.65,4.93-2.56a3.53,3.53,0,0,1,2.22,4.15s4.56-1,6,1-.73,4.33-.73,4.33a5.13,5.13,0,0,1,4.46,3.85c.8,3.55-2.77,2.85-2.77,2.85s2.85,3.76,1.58,6.11-4,1-4,1,.93,4.32-1.35,5.7-3.92-1.24-3.92-1.24-.38,3.91-3,4.11-3.3-2.79-3.3-2.79-3.72,2.42-6.71,1.19-.61-4-.61-4-4.8.28-6-2.29,1.56-3.9,1.56-3.9a6.67,6.67,0,0,1-3.82-5.41c-.51-4.13,3.51-2.39,3.51-2.39s-2.38-3.95-.17-6.34a3,3,0,0,1,4.43-.24s-.46-4,2.06-4.86S131.35,389,131.35,389Z" style="fill:#BA68C8"></path><path d="M131.35,389s2-3.65,4.93-2.56a3.53,3.53,0,0,1,2.22,4.15s4.56-1,6,1-.73,4.33-.73,4.33a5.13,5.13,0,0,1,4.46,3.85c.8,3.55-2.77,2.85-2.77,2.85s2.85,3.76,1.58,6.11-4,1-4,1,.93,4.32-1.35,5.7-3.92-1.24-3.92-1.24-.38,3.91-3,4.11-3.3-2.79-3.3-2.79-3.72,2.42-6.71,1.19-.61-4-.61-4-4.8.28-6-2.29,1.56-3.9,1.56-3.9a6.67,6.67,0,0,1-3.82-5.41c-.51-4.13,3.51-2.39,3.51-2.39s-2.38-3.95-.17-6.34a3,3,0,0,1,4.43-.24s-.46-4,2.06-4.86S131.35,389,131.35,389Z" style="fill:#fff;opacity:0.30000000000000004"></path><path d="M145.5,402.61s3.05.56,2.84-2.21c-.93,2.93-3.6,1-3.6,1s1,4.61-1.18,6.2-4.06-.84-4.06-.84-1,4.3-3.65,4.57-3-2.78-3-2.78-2,3.37-4.51,2.42-1.79-3.93-1.79-3.93-4.4.61-6.59-1.78,1.15-3.87,1.15-3.87a9.54,9.54,0,0,1-3.93-3c-.85.16-1.57.81-1.34,2.71a6.67,6.67,0,0,0,3.82,5.41s-2.77,1.33-1.56,3.9,6,2.29,6,2.29-2.39,2.77.61,4,6.71-1.19,6.71-1.19.64,3,3.3,2.79,3-4.11,3-4.11,1.63,2.61,3.92,1.24,1.35-5.7,1.35-5.7,2.76,1.39,4-1S145.5,402.61,145.5,402.61Z" style="fill:#BA68C8"></path><path d="M124.16,399.91c-.53.53-3.23,2.36-3.76,1.82s1.29-3.23,1.82-3.76a1.37,1.37,0,0,1,1.94,1.94Z" style="fill:#BA68C8"></path><path d="M124.16,399.91c-.53.53-3.23,2.36-3.76,1.82s1.29-3.23,1.82-3.76a1.37,1.37,0,0,1,1.94,1.94Z" style="fill:#fff;opacity:0.8"></path><path d="M115.63,404.56c.54-.53,3.23-2.36,3.76-1.82s-1.28,3.22-1.82,3.76a1.37,1.37,0,0,1-1.94-1.94Z" style="fill:#BA68C8"></path><path d="M115.63,404.56c.54-.53,3.23-2.36,3.76-1.82s-1.28,3.22-1.82,3.76a1.37,1.37,0,0,1-1.94-1.94Z" style="fill:#fff;opacity:0.8"></path><path d="M120,397.38c.2.73.43,4-.3,4.17s-2.15-2.73-2.34-3.46a1.37,1.37,0,1,1,2.64-.71Z" style="fill:#BA68C8"></path><path d="M120,397.38c.2.73.43,4-.3,4.17s-2.15-2.73-2.34-3.46a1.37,1.37,0,1,1,2.64-.71Z" style="fill:#fff;opacity:0.8"></path><path d="M119.78,407.09c-.2-.73-.43-4,.3-4.17s2.15,2.73,2.35,3.46a1.37,1.37,0,1,1-2.65.71Z" style="fill:#BA68C8"></path><path d="M119.78,407.09c-.2-.73-.43-4,.3-4.17s2.15,2.73,2.35,3.46a1.37,1.37,0,1,1-2.65.71Z" style="fill:#fff;opacity:0.8"></path><path d="M115.75,399.7c.73.2,3.66,1.62,3.46,2.35s-3.44.5-4.17.3a1.37,1.37,0,1,1,.71-2.65Z" style="fill:#BA68C8"></path><path d="M115.75,399.7c.73.2,3.66,1.62,3.46,2.35s-3.44.5-4.17.3a1.37,1.37,0,1,1,.71-2.65Z" style="fill:#fff;opacity:0.8"></path><path d="M124,404.76c-.73-.19-3.65-1.61-3.46-2.34s3.44-.5,4.17-.3a1.37,1.37,0,1,1-.71,2.64Z" style="fill:#BA68C8"></path><path d="M124,404.76c-.73-.19-3.65-1.61-3.46-2.34s3.44-.5,4.17-.3a1.37,1.37,0,1,1-.71,2.64Z" style="fill:#fff;opacity:0.8"></path><path d="M121.21,403.55a1.86,1.86,0,1,1,0-2.63A1.87,1.87,0,0,1,121.21,403.55Z" style="fill:#BA68C8"></path><path d="M121.21,403.55a1.86,1.86,0,1,1,0-2.63A1.87,1.87,0,0,1,121.21,403.55Z" style="fill:#fff;opacity:0.2"></path><path d="M134.7,410.45c-.53.53-3.23,2.36-3.76,1.82s1.29-3.23,1.82-3.76a1.37,1.37,0,0,1,1.94,1.94Z" style="fill:#BA68C8"></path><path d="M134.7,410.45c-.53.53-3.23,2.36-3.76,1.82s1.29-3.23,1.82-3.76a1.37,1.37,0,0,1,1.94,1.94Z" style="fill:#fff;opacity:0.8"></path><path d="M126.17,415.1c.54-.53,3.23-2.36,3.76-1.82s-1.29,3.22-1.82,3.76a1.37,1.37,0,1,1-1.94-1.94Z" style="fill:#BA68C8"></path><path d="M126.17,415.1c.54-.53,3.23-2.36,3.76-1.82s-1.29,3.22-1.82,3.76a1.37,1.37,0,1,1-1.94-1.94Z" style="fill:#fff;opacity:0.8"></path><path d="M130.55,407.92c.2.73.43,4-.3,4.17s-2.15-2.73-2.34-3.46a1.37,1.37,0,1,1,2.64-.71Z" style="fill:#BA68C8"></path><path d="M130.55,407.92c.2.73.43,4-.3,4.17s-2.15-2.73-2.34-3.46a1.37,1.37,0,1,1,2.64-.71Z" style="fill:#fff;opacity:0.8"></path><path d="M130.32,417.63c-.2-.73-.43-4,.3-4.17s2.15,2.73,2.35,3.46a1.37,1.37,0,1,1-2.65.71Z" style="fill:#BA68C8"></path><path d="M130.32,417.63c-.2-.73-.43-4,.3-4.17s2.15,2.73,2.35,3.46a1.37,1.37,0,1,1-2.65.71Z" style="fill:#fff;opacity:0.8"></path><path d="M126.29,410.24c.73.2,3.66,1.62,3.46,2.35s-3.44.5-4.17.3a1.37,1.37,0,1,1,.71-2.65Z" style="fill:#BA68C8"></path><path d="M126.29,410.24c.73.2,3.66,1.62,3.46,2.35s-3.44.5-4.17.3a1.37,1.37,0,1,1,.71-2.65Z" style="fill:#fff;opacity:0.8"></path><path d="M134.58,415.3c-.73-.19-3.65-1.61-3.46-2.34s3.44-.5,4.17-.3a1.37,1.37,0,1,1-.71,2.64Z" style="fill:#BA68C8"></path><path d="M134.58,415.3c-.73-.19-3.65-1.61-3.46-2.34s3.44-.5,4.17-.3a1.37,1.37,0,1,1-.71,2.64Z" style="fill:#fff;opacity:0.8"></path><path d="M131.75,414.08a1.86,1.86,0,1,1,0-2.62A1.86,1.86,0,0,1,131.75,414.08Z" style="fill:#BA68C8"></path><path d="M131.75,414.08a1.86,1.86,0,1,1,0-2.62A1.86,1.86,0,0,1,131.75,414.08Z" style="fill:#fff;opacity:0.2"></path><path d="M146.45,391.46c-.54.53-3.23,2.36-3.76,1.82s1.28-3.23,1.82-3.76a1.36,1.36,0,0,1,1.94,0A1.38,1.38,0,0,1,146.45,391.46Z" style="fill:#BA68C8"></path><path d="M146.45,391.46c-.54.53-3.23,2.36-3.76,1.82s1.28-3.23,1.82-3.76a1.36,1.36,0,0,1,1.94,0A1.38,1.38,0,0,1,146.45,391.46Z" style="fill:#fff;opacity:0.8"></path><path d="M137.92,396.11c.53-.54,3.23-2.36,3.76-1.82s-1.29,3.22-1.82,3.76a1.38,1.38,0,0,1-1.94,0A1.36,1.36,0,0,1,137.92,396.11Z" style="fill:#BA68C8"></path><path d="M137.92,396.11c.53-.54,3.23-2.36,3.76-1.82s-1.29,3.22-1.82,3.76a1.38,1.38,0,0,1-1.94,0A1.36,1.36,0,0,1,137.92,396.11Z" style="fill:#fff;opacity:0.8"></path><path d="M142.3,388.93c.2.73.43,4-.3,4.17s-2.15-2.73-2.35-3.46a1.37,1.37,0,0,1,2.65-.71Z" style="fill:#BA68C8"></path><path d="M142.3,388.93c.2.73.43,4-.3,4.17s-2.15-2.73-2.35-3.46a1.37,1.37,0,0,1,2.65-.71Z" style="fill:#fff;opacity:0.8"></path><path d="M142.07,398.64c-.2-.73-.43-4,.3-4.17s2.15,2.73,2.34,3.46a1.37,1.37,0,1,1-2.64.71Z" style="fill:#BA68C8"></path><path d="M142.07,398.64c-.2-.73-.43-4,.3-4.17s2.15,2.73,2.34,3.46a1.37,1.37,0,1,1-2.64.71Z" style="fill:#fff;opacity:0.8"></path><path d="M138,391.25c.73.2,3.65,1.62,3.46,2.35s-3.44.5-4.17.3a1.37,1.37,0,0,1,.71-2.65Z" style="fill:#BA68C8"></path><path d="M138,391.25c.73.2,3.65,1.62,3.46,2.35s-3.44.5-4.17.3a1.37,1.37,0,0,1,.71-2.65Z" style="fill:#fff;opacity:0.8"></path><path d="M146.33,396.31c-.73-.19-3.66-1.61-3.46-2.34s3.44-.5,4.17-.3a1.37,1.37,0,1,1-.71,2.64Z" style="fill:#BA68C8"></path><path d="M146.33,396.31c-.73-.19-3.66-1.61-3.46-2.34s3.44-.5,4.17-.3a1.37,1.37,0,1,1-.71,2.64Z" style="fill:#fff;opacity:0.8"></path><path d="M143.49,395.09a1.85,1.85,0,1,1,0-2.62A1.84,1.84,0,0,1,143.49,395.09Z" style="fill:#BA68C8"></path><path d="M143.49,395.09a1.85,1.85,0,1,1,0-2.62A1.84,1.84,0,0,1,143.49,395.09Z" style="fill:#fff;opacity:0.2"></path><path d="M134.51,388.84c-.83.83-5,3.66-5.83,2.83s2-5,2.83-5.84a2.12,2.12,0,1,1,3,3Z" style="fill:#BA68C8"></path><path d="M134.51,388.84c-.83.83-5,3.66-5.83,2.83s2-5,2.83-5.84a2.12,2.12,0,1,1,3,3Z" style="fill:#fff;opacity:0.8"></path><path d="M121.29,396.06c.83-.83,5-3.66,5.83-2.83s-2,5-2.83,5.83a2.12,2.12,0,0,1-3-3Z" style="fill:#BA68C8"></path><path d="M121.29,396.06c.83-.83,5-3.66,5.83-2.83s-2,5-2.83,5.83a2.12,2.12,0,0,1-3-3Z" style="fill:#fff;opacity:0.8"></path><path d="M128.08,384.91c.31,1.14.67,6.17-.46,6.47s-3.34-4.23-3.64-5.37a2.12,2.12,0,0,1,4.1-1.1Z" style="fill:#BA68C8"></path><path d="M128.08,384.91c.31,1.14.67,6.17-.46,6.47s-3.34-4.23-3.64-5.37a2.12,2.12,0,0,1,4.1-1.1Z" style="fill:#fff;opacity:0.8"></path><path d="M127.72,400c-.31-1.13-.67-6.17.47-6.47s3.33,4.24,3.63,5.37a2.12,2.12,0,1,1-4.1,1.1Z" style="fill:#BA68C8"></path><path d="M127.72,400c-.31-1.13-.67-6.17.47-6.47s3.33,4.24,3.63,5.37a2.12,2.12,0,1,1-4.1,1.1Z" style="fill:#fff;opacity:0.8"></path><path d="M121.47,388.52c1.13.31,5.67,2.51,5.37,3.64s-5.34.77-6.47.47a2.13,2.13,0,1,1,1.1-4.11Z" style="fill:#BA68C8"></path><path d="M121.47,388.52c1.13.31,5.67,2.51,5.37,3.64s-5.34.77-6.47.47a2.13,2.13,0,1,1,1.1-4.11Z" style="fill:#fff;opacity:0.8"></path><path d="M134.33,396.37c-1.13-.3-5.67-2.5-5.37-3.64s5.34-.77,6.47-.47a2.13,2.13,0,1,1-1.1,4.11Z" style="fill:#BA68C8"></path><path d="M134.33,396.37c-1.13-.3-5.67-2.5-5.37-3.64s5.34-.77,6.47-.47a2.13,2.13,0,1,1-1.1,4.11Z" style="fill:#fff;opacity:0.8"></path><path d="M129.93,394.48a2.87,2.87,0,1,1,0-4.07A2.87,2.87,0,0,1,129.93,394.48Z" style="fill:#BA68C8"></path><path d="M129.93,394.48a2.87,2.87,0,1,1,0-4.07A2.87,2.87,0,0,1,129.93,394.48Z" style="fill:#fff;opacity:0.2"></path><path d="M147.84,407.87c-.54.53-3.23,2.36-3.76,1.82s1.29-3.22,1.82-3.76a1.38,1.38,0,0,1,1.94,0A1.36,1.36,0,0,1,147.84,407.87Z" style="fill:#BA68C8"></path><path d="M147.84,407.87c-.54.53-3.23,2.36-3.76,1.82s1.29-3.22,1.82-3.76a1.38,1.38,0,0,1,1.94,0A1.36,1.36,0,0,1,147.84,407.87Z" style="fill:#fff;opacity:0.8"></path><path d="M139.31,412.52c.53-.53,3.23-2.36,3.76-1.82s-1.29,3.23-1.82,3.76a1.37,1.37,0,1,1-1.94-1.94Z" style="fill:#BA68C8"></path><path d="M139.31,412.52c.53-.53,3.23-2.36,3.76-1.82s-1.29,3.23-1.82,3.76a1.37,1.37,0,1,1-1.94-1.94Z" style="fill:#fff;opacity:0.8"></path><path d="M143.69,405.34c.2.73.43,4-.3,4.17s-2.15-2.73-2.35-3.46a1.37,1.37,0,0,1,2.65-.71Z" style="fill:#BA68C8"></path><path d="M143.69,405.34c.2.73.43,4-.3,4.17s-2.15-2.73-2.35-3.46a1.37,1.37,0,0,1,2.65-.71Z" style="fill:#fff;opacity:0.8"></path><path d="M143.46,415.05c-.2-.73-.43-4,.3-4.17s2.15,2.73,2.34,3.46a1.37,1.37,0,1,1-2.64.71Z" style="fill:#BA68C8"></path><path d="M143.46,415.05c-.2-.73-.43-4,.3-4.17s2.15,2.73,2.34,3.46a1.37,1.37,0,1,1-2.64.71Z" style="fill:#fff;opacity:0.8"></path><path d="M139.43,407.67c.73.19,3.65,1.61,3.46,2.34s-3.44.5-4.17.3a1.37,1.37,0,1,1,.71-2.64Z" style="fill:#BA68C8"></path><path d="M139.43,407.67c.73.19,3.65,1.61,3.46,2.34s-3.44.5-4.17.3a1.37,1.37,0,1,1,.71-2.64Z" style="fill:#fff;opacity:0.8"></path><path d="M147.72,412.73c-.73-.2-3.66-1.62-3.46-2.35s3.44-.5,4.17-.3a1.37,1.37,0,0,1-.71,2.65Z" style="fill:#BA68C8"></path><path d="M147.72,412.73c-.73-.2-3.66-1.62-3.46-2.35s3.44-.5,4.17-.3a1.37,1.37,0,0,1-.71,2.65Z" style="fill:#fff;opacity:0.8"></path><path d="M144.89,411.51a1.86,1.86,0,1,1,0-2.62A1.87,1.87,0,0,1,144.89,411.51Z" style="fill:#BA68C8"></path><path d="M144.89,411.51a1.86,1.86,0,1,1,0-2.62A1.87,1.87,0,0,1,144.89,411.51Z" style="fill:#fff;opacity:0.2"></path><path d="M139.29,397.2c0,1.05-.86,5.5-1.91,5.5s-1.91-4.45-1.91-5.5a1.91,1.91,0,0,1,3.82,0Z" style="fill:#BA68C8"></path><path d="M139.29,397.2c0,1.05-.86,5.5-1.91,5.5s-1.91-4.45-1.91-5.5a1.91,1.91,0,0,1,3.82,0Z" style="fill:#fff;opacity:0.6000000000000001"></path><path d="M135.47,412.42c0-1.05.86-5.5,1.91-5.5s1.91,4.45,1.91,5.5a1.91,1.91,0,0,1-3.82,0Z" style="fill:#BA68C8"></path><path d="M135.47,412.42c0-1.05.86-5.5,1.91-5.5s1.91,4.45,1.91,5.5a1.91,1.91,0,0,1-3.82,0Z" style="fill:#fff;opacity:0.6000000000000001"></path><path d="M145,406.72c-1.05,0-5.5-.85-5.5-1.91s4.45-1.91,5.5-1.91a1.91,1.91,0,0,1,0,3.82Z" style="fill:#BA68C8"></path><path d="M145,406.72c-1.05,0-5.5-.85-5.5-1.91s4.45-1.91,5.5-1.91a1.91,1.91,0,0,1,0,3.82Z" style="fill:#fff;opacity:0.6000000000000001"></path><path d="M129.77,402.9c1,0,5.5.86,5.5,1.91s-4.45,1.91-5.5,1.91a1.91,1.91,0,1,1,0-3.82Z" style="fill:#BA68C8"></path><path d="M129.77,402.9c1,0,5.5.86,5.5,1.91s-4.45,1.91-5.5,1.91a1.91,1.91,0,1,1,0-3.82Z" style="fill:#fff;opacity:0.6000000000000001"></path><path d="M144.11,400.78c-.74.74-4.49,3.28-5.24,2.54s1.8-4.5,2.54-5.24a1.91,1.91,0,1,1,2.7,2.7Z" style="fill:#BA68C8"></path><path d="M144.11,400.78c-.74.74-4.49,3.28-5.24,2.54s1.8-4.5,2.54-5.24a1.91,1.91,0,1,1,2.7,2.7Z" style="fill:#fff;opacity:0.6000000000000001"></path><path d="M130.65,408.84c.74-.74,4.49-3.28,5.24-2.54s-1.8,4.5-2.54,5.24a1.91,1.91,0,0,1-2.7-2.7Z" style="fill:#BA68C8"></path><path d="M130.65,408.84c.74-.74,4.49-3.28,5.24-2.54s-1.8,4.5-2.54,5.24a1.91,1.91,0,0,1-2.7-2.7Z" style="fill:#fff;opacity:0.6000000000000001"></path><path d="M141.41,411.54c-.74-.74-3.28-4.49-2.54-5.24s4.5,1.8,5.24,2.54a1.91,1.91,0,0,1-2.7,2.7Z" style="fill:#BA68C8"></path><path d="M141.41,411.54c-.74-.74-3.28-4.49-2.54-5.24s4.5,1.8,5.24,2.54a1.91,1.91,0,0,1-2.7,2.7Z" style="fill:#fff;opacity:0.6000000000000001"></path><path d="M133.35,398.08c.74.74,3.28,4.49,2.54,5.24s-4.5-1.8-5.24-2.54a1.91,1.91,0,1,1,2.7-2.7Z" style="fill:#BA68C8"></path><path d="M133.35,398.08c.74.74,3.28,4.49,2.54,5.24s-4.5-1.8-5.24-2.54a1.91,1.91,0,1,1,2.7-2.7Z" style="fill:#fff;opacity:0.6000000000000001"></path><path d="M140.64,404.81a3.26,3.26,0,1,1-3.26-3.25A3.26,3.26,0,0,1,140.64,404.81Z" style="fill:#BA68C8"></path><path d="M140.64,404.81a3.26,3.26,0,1,1-3.26-3.25A3.26,3.26,0,0,1,140.64,404.81Z" style="fill:#fff;opacity:0.2"></path><path d="M327.05,405.26c-.58.58-3.5,2.56-4.08,2s1.4-3.5,2-4.08a1.48,1.48,0,0,1,2.1,0A1.5,1.5,0,0,1,327.05,405.26Z" style="fill:#BA68C8"></path><path d="M327.05,405.26c-.58.58-3.5,2.56-4.08,2s1.4-3.5,2-4.08a1.48,1.48,0,0,1,2.1,0A1.5,1.5,0,0,1,327.05,405.26Z" style="fill:#fff;opacity:0.8"></path><path d="M317.81,410.3c.58-.58,3.49-2.56,4.07-2s-1.39,3.5-2,4.08a1.48,1.48,0,1,1-2.1-2.1Z" style="fill:#BA68C8"></path><path d="M317.81,410.3c.58-.58,3.49-2.56,4.07-2s-1.39,3.5-2,4.08a1.48,1.48,0,1,1-2.1-2.1Z" style="fill:#fff;opacity:0.8"></path><path d="M322.56,402.52c.21.79.46,4.3-.33,4.52s-2.33-3-2.54-3.75a1.49,1.49,0,0,1,2.87-.77Z" style="fill:#BA68C8"></path><path d="M322.56,402.52c.21.79.46,4.3-.33,4.52s-2.33-3-2.54-3.75a1.49,1.49,0,0,1,2.87-.77Z" style="fill:#fff;opacity:0.8"></path><path d="M322.3,413c-.21-.79-.46-4.31.33-4.52s2.33,3,2.54,3.75a1.49,1.49,0,1,1-2.87.77Z" style="fill:#BA68C8"></path><path d="M322.3,413c-.21-.79-.46-4.31.33-4.52s2.33,3,2.54,3.75a1.49,1.49,0,1,1-2.87.77Z" style="fill:#fff;opacity:0.8"></path><path d="M317.94,405c.79.21,4,1.75,3.75,2.54s-3.73.54-4.52.33a1.49,1.49,0,1,1,.77-2.87Z" style="fill:#BA68C8"></path><path d="M317.94,405c.79.21,4,1.75,3.75,2.54s-3.73.54-4.52.33a1.49,1.49,0,1,1,.77-2.87Z" style="fill:#fff;opacity:0.8"></path><path d="M326.92,410.52c-.79-.21-4-1.75-3.75-2.54s3.72-.54,4.52-.33a1.49,1.49,0,0,1-.77,2.87Z" style="fill:#BA68C8"></path><path d="M326.92,410.52c-.79-.21-4-1.75-3.75-2.54s3.72-.54,4.52-.33a1.49,1.49,0,0,1-.77,2.87Z" style="fill:#fff;opacity:0.8"></path><path d="M323.85,409.2a2,2,0,1,1,0-2.84A2,2,0,0,1,323.85,409.2Z" style="fill:#BA68C8"></path><path d="M323.85,409.2a2,2,0,1,1,0-2.84A2,2,0,0,1,323.85,409.2Z" style="fill:#fff;opacity:0.2"></path></g><g id="freepik--Hashtag--inject-111"><polygon points="272.41 212.26 274.3 212.26 284.57 212.25 320.3 212.22 343.57 212.2 359.9 212.18 369.68 212.17 366.06 264.7 352.38 264.71 333.84 264.73 308.25 264.75 286.39 264.77 269.45 264.78 268.77 264.78 272.41 212.26" style="fill:#BA68C8"></polygon><polygon points="272.41 212.26 274.3 212.26 284.57 212.25 320.3 212.22 343.57 212.2 359.9 212.18 369.68 212.17 366.06 264.7 352.38 264.71 333.84 264.73 308.25 264.75 286.39 264.77 269.45 264.78 268.77 264.78 272.41 212.26" style="opacity:0.1"></polygon><polygon points="369.68 212.17 336.91 264.78 352.38 264.71 362.18 250.86 360.29 264.26 366.06 264.7 369.68 212.17" style="opacity:0.1"></polygon><path d="M302,264.71c-2.12-12.7-5-32.56-8.25-52.52l-14.29,0a257.87,257.87,0,0,1,9.4,52.51Z" style="opacity:0.1"></path><path d="M323.82,212.16l-13.05,0c.4,10.6,1.34,19.15,3.37,19.5C316.41,232.06,320.19,223,323.82,212.16Z" style="opacity:0.1"></path><path d="M341.82,212.14c-9.6,18.67-20.39,39.35-28.39,52.55h12.62c9-18.07,18.23-37,26.21-52.55Z" style="opacity:0.1"></path><polygon points="328.19 167.84 325.88 200.88 324.94 214.34 324.09 226.5 323.1 240.69 321.45 264.2 320.5 277.8 319.2 296.4 318.3 309.28 317.3 323.56 316.67 332.62 315.86 344.3 313.22 382.04 311.52 406.3 310.83 416.18 258.18 416.18 258.37 413.44 259.75 393.76 261.65 366.5 263.29 343.23 264.47 326.31 264.94 319.62 265.49 311.65 267.24 286.64 268.63 266.85 269.98 247.56 270.99 233.02 272.41 212.77 273.18 201.64 274.42 184.07 275.17 173.22 275.55 167.84 328.19 167.84" style="fill:#BA68C8"></polygon><g style="opacity:0.1"><path d="M324.09,226.5l-1,14.19A271.22,271.22,0,0,0,270,247.56L271,233C291.89,230.39,312,228.17,324.09,226.5Z"></path><path d="M263.29,343.23l1.18-16.92c6.28,1.57,11.33,3.46,13.71,5.7C282.58,336.14,274.13,340.15,263.29,343.23Z"></path><path d="M265.49,311.65c17.09,3.4,35.35,7.06,51.81,11.91l-.63,9.06c-9.67-3.9-29.4-8.22-51.73-13Z"></path><path d="M315.86,344.3,313.22,382a469.09,469.09,0,0,1-53.47,11.72l1.9-27.26C284.3,359.46,305.31,350.85,315.86,344.3Z"></path><path d="M286.84,210c-.36,1.72-6.3,2.49-14.43,2.73l.77-11.13C281.3,205,287.23,208.12,286.84,210Z"></path><path d="M293.61,281.77c-1,3.31,12,9.34,25.59,14.63l-.9,12.88c-15.37-6.18-36.24-14.94-51.06-22.64l1.39-19.79c14.41-1.64,34.57-2.39,52.82-2.65l-.95,13.6C306.34,278.07,294.43,279.11,293.61,281.77Z"></path><path d="M258.37,413.44c17.43-2.75,36.52-5.18,53.15-7.14l-.69,9.87H258.18Z"></path><path d="M325.88,200.88l-.94,13.46c-11.7-8.05-31.53-19.52-50.52-30.27l.75-10.85C290.81,181.86,308.85,191.51,325.88,200.88Z"></path></g><polygon points="258.18 416.18 310.83 416.18 315.86 340.53 263.48 340.53 258.18 416.18" style="opacity:0.1"></polygon><polygon points="358.56 371.59 362.18 319.07 113.24 319.29 109.62 371.81 358.56 371.59" style="fill:#BA68C8"></polygon><polygon points="113.34 319.26 109.62 371.81 174.65 371.75 179.54 319.23 113.34 319.26" style="opacity:0.1"></polygon><g style="opacity:0.1"><path d="M305.5,371.59c-2.12-12.69-5-32.55-8.25-52.51l-14.29,0a257.87,257.87,0,0,1,9.4,52.51Z"></path><path d="M204.6,334.5c2.27-2.6,4-8.35,5.35-15.33H193C196.35,330.11,200.65,339,204.6,334.5Z"></path><path d="M171.15,319.2l-25.59,0a447.65,447.65,0,0,0,13.54,52.51l35.73,0C188.15,362.13,178.85,341.5,171.15,319.2Z"></path><path d="M213.84,371.68c4.3-16.72,7.25-35.33,10-52.52H216.3c-4,22.79-7.66,43.08-11.19,52.54Z"></path><path d="M330,319.05H317c.41,10.6,1.35,19.16,3.38,19.51C322.63,339,326.4,329.85,330,319.05Z"></path><path d="M265.32,319.11l-16.48,0c-7.16,14.37-15.52,36.5-21.29,52.54h12.37c4.5-12.86,9.63-25,12.75-24.19,2.47.67,3.84,11.28,4.58,24.17h12.9C269.19,352.93,267.64,332.44,265.32,319.11Z"></path><path d="M135.84,371.76c-2.46-16.17-5.52-35.19-8.83-52.51H113.34l-1.45,21a185.34,185.34,0,0,1,7.61,31.55Z"></path><path d="M348,319c-9.6,18.67-20.39,39.35-28.38,52.55h12.61c9-18.07,18.23-37,26.22-52.55Z"></path></g><polygon points="203.74 416.13 151.09 416.13 168.46 167.79 221.11 167.79 203.74 416.13" style="fill:#BA68C8"></polygon><polygon points="221.11 167.79 220.84 171.59 220.12 182.01 218.86 199.96 217.95 212.98 216.57 232.67 215.57 246.92 214.34 264.52 213.19 280.96 211.45 305.88 210.92 313.42 210.48 319.75 209.3 336.66 207.78 358.46 205.99 383.99 204.69 402.49 203.74 416.13 151.09 416.13 151.77 406.36 152.91 390.07 154.54 366.86 157.03 331.22 157.74 320.97 158.36 312.26 159.31 298.58 160.18 286.24 161.38 268.95 162.28 256.08 163.84 233.93 164.75 220.82 165.74 206.71 166.62 194.12 168.46 167.79 221.11 167.79" style="fill:#BA68C8"></polygon><polygon points="161.68 264.89 160.98 274.32 214.08 264.84 161.68 264.89" style="opacity:0.2"></polygon><polygon points="168.42 167.89 161.68 264.26 214.34 264.52 221.11 167.79 168.42 167.89" style="opacity:0.1"></polygon><g style="opacity:0.1"><path d="M207.4,363.19c-12.52-3-32.13-7.22-51.82-11.85l1-14.25a257.79,257.79,0,0,0,51.74,13Z"></path><path d="M177.34,260c-2.74,2.08-8.6,3.43-15.66,4.28l1.18-16.9C173.53,251.45,182.14,256.35,177.34,260Z"></path><path d="M164.38,225.56,166.17,200a445,445,0,0,1,51.45,17.12l-2.49,35.64C206,245.47,186.1,234.77,164.38,225.56Z"></path><path d="M213.68,273.73c-17,3.15-35.74,4.8-53.09,6.39l1.09-15.23c23.39,0,52.62.14,52.62.14Z"></path><path d="M153.29,384.05l.91-13c10.55,1.13,19,2.66,19.23,4.71C173.66,378,164.32,381.17,153.29,384.05Z"></path><path d="M157.81,319.5,159,303.05c14.83-6.15,37.48-13,53.89-17.62L212,297.77c-13.13,3.61-25.64,7.89-25,11.06.5,2.51,11,4.61,23.8,6.23l-.9,12.87C191.28,325.69,171,322.73,157.81,319.5Z"></path><path d="M219.25,194c-16-3.57-34.73-7.93-51.78-12.42l.95-13.64h21a186.06,186.06,0,0,0,30.95,9.76Z"></path><path d="M151.31,412.43c16.08-6.9,35.57-14.77,54.22-22.54l.88-12.58c-13.72,7.06-35.09,16.4-54.38,24.69Z"></path></g><polygon points="268.77 264.78 263.1 264.79 255.53 264.8 230.56 264.82 214.08 264.84 196.44 264.85 182.15 264.87 162.41 264.89 149.37 264.9 131.37 264.92 120.92 264.92 117.12 264.92 120.74 212.4 147.14 212.38 159.75 212.37 173.9 212.35 187.03 212.34 209.25 212.31 222.15 212.31 239.49 212.29 251.85 212.27 265.56 212.27 272.41 212.26 268.77 264.78" style="fill:#BA68C8"></polygon><polygon points="268.77 264.78 263.1 264.79 255.53 264.8 230.56 264.82 214.08 264.84 196.44 264.85 182.15 264.87 162.41 264.89 149.37 264.9 131.37 264.92 120.92 264.92 117.12 264.92 120.74 212.4 147.14 212.38 159.75 212.37 173.9 212.35 187.03 212.34 209.25 212.31 222.15 212.31 239.49 212.29 251.85 212.27 265.56 212.27 272.41 212.26 268.77 264.78" style="fill:#BA68C8"></polygon><g style="opacity:0.1"><path d="M212.1,227.61c2.27-2.6,4-8.35,5.35-15.33H200.5C203.85,223.22,208.14,232.15,212.1,227.61Z"></path><path d="M178.65,212.31l-25.59,0a443.73,443.73,0,0,0,13.54,52.51l35.73,0C195.65,255.24,186.35,234.61,178.65,212.31Z"></path><path d="M221.33,264.79c4.31-16.72,7.25-35.32,10-52.52h-7.57c-4,22.79-7.65,43.08-11.19,52.54Z"></path><path d="M143.33,264.87c-2.45-16.17-5.51-35.19-8.82-52.51H120.84l-1.45,21A185.58,185.58,0,0,1,127,264.89Z"></path></g><path d="M263.45,212.13l-16.48,0c-7.16,14.37-15.52,36.5-21.29,52.54h12.37c4.5-12.86,9.63-25,12.75-24.19,2.47.67,3.85,11.28,4.59,24.17h12.89C267.32,246,265.78,225.46,263.45,212.13Z" style="opacity:0.1"></path><polygon points="261.24 371.81 260.53 381.25 313.9 371.44 261.24 371.81" style="opacity:0.2"></polygon><polygon points="272.41 212.26 268.77 264.78 260.17 264.92 272.41 212.26" style="opacity:0.2"></polygon><polygon points="145.72 371.72 154.43 371.69 156.89 319.17 145.72 371.72" style="opacity:0.2"></polygon></g></svg>
